<svg viewBox="150 150 950 900">
 <path d="m229.69 270.66h740.58c23.672 0 45.234 9.6562 60.797 25.266 15.609 15.609 25.266 37.125 25.266 60.797v486.66c0 23.672-9.6562 45.234-25.266 60.797-15.609 15.609-37.078 25.266-60.797 25.266l-740.58-0.046874c-23.672 0-45.188-9.6562-60.797-25.266-15.609-15.609-25.266-37.078-25.266-60.797l0.046875-486.61c0-23.672 9.6562-45.188 25.266-60.797 15.562-15.609 37.078-25.266 60.75-25.266zm765.56 605.06-286.87-246.05-41.297 35.391c-18.516 15.891-42.703 23.906-66.703 24.047-24.047 0.09375-48.188-7.7344-66.609-23.531l-41.906-35.906-286.97 246.14c6.8906 5.2969 15.516 8.4844 24.797 8.4844h740.58c9.375 0 18.047-3.2344 24.984-8.5781zm-806.44-45.422 268.5-230.26-268.5-230.29zm16.078-506.06 301.4 258.52 0.375 0.32812 56.344 48.328c10.031 8.5781 23.531 12.844 37.172 12.75 13.734-0.046875 27.375-4.5 37.594-13.312l55.688-47.766 0.46875-0.42188 301.26-258.37c-6.9375-5.3438-15.609-8.5781-24.938-8.5781l-740.58 0.09375c-9.2812 0-17.906 3.1406-24.797 8.4375zm806.29 45.75-268.22 230.06 268.26 230.06v-460.13z"/>
</svg>