<?xml version="1.0" encoding="UTF-8"?>
<svg width="100pt" height="100pt" version="1.1" viewBox="0 0 100 100" xmlns="http://www.w3.org/2000/svg">
 <g>
  <path d="m34.199 89.199c1 1 2.3008 1.5 3.6992 1.5 1.3008 0 2.6992-0.5 3.6992-1.5l42.699-42.699c1-1 1.6016-2.3984 1.5-3.8008l-0.60156-23.199c-0.10156-2.8008-2.3008-5-5.1016-5.1016l-23.094-0.59766c-1.3984 0-2.8008 0.5-3.8008 1.5l-42.801 42.801c-1 1-1.5 2.3008-1.5 3.6992 0 1.3984 0.5 2.6992 1.5 3.6992zm-20.898-26.598c-0.19922-0.19922-0.39844-0.5-0.39844-0.89844s0.10156-0.60156 0.39844-0.89844l42.699-42.605c0.19922-0.19922 0.60156-0.39844 0.89844-0.39844l23.102 0.59766c0.60156 0 1.1992 0.5 1.1992 1.1992l0.60156 23.199c0 0.30078-0.10156 0.69922-0.39844 0.89844l-42.703 42.605c-0.5 0.5-1.1992 0.5-1.6992 0z"/>
  <path d="m65.5 42.199c2.1016 0 4.1016-0.80078 5.6992-2.3008 3.1016-3.1016 3.1016-8.1992 0-11.301-3.1016-3.1016-8.1992-3.1016-11.301 0-3.1016 3.1016-3.1016 8.1992 0 11.301 1.4023 1.4023 3.4023 2.3008 5.6016 2.3008zm-2.8984-10.898c0.80078-0.80078 1.8008-1.1992 2.8008-1.1992s2 0.39844 2.8008 1.1992c1.6016 1.6016 1.6016 4.1016 0 5.6992-1.5 1.5-4.1016 1.5-5.6992 0-1.4023-1.6016-1.4023-4.1016 0.097656-5.6992z"/>
 </g>
</svg>
